<?xml version="1.0" encoding="UTF-8"?>
<svg width="16px" height="10px" viewBox="0 0 16 10" version="1.1" xmlns="http://www.w3.org/2000/svg" xmlns:xlink="http://www.w3.org/1999/xlink">
    <!-- Generator: Sketch 49.3 (51167) - http://www.bohemiancoding.com/sketch -->
    <title>G+@2x</title>
    <desc>Created with Sketch.</desc>
    <defs></defs>
    <g id="Page-1" stroke="none" stroke-width="1" fill="none" fill-rule="evenodd">
        <g id="G+" fill="#FFFFFF" fill-rule="nonzero">
            <path d="M5.07824381,4.01158301 L5.07824381,5.99227799 C5.07824381,5.99227799 7.02869757,5.98841699 7.82536179,5.98841699 C7.39367182,7.2702703 6.72651459,7.969112 5.07824381,7.969112 C3.41035075,7.969112 2.11135639,6.64092664 2.11135639,5 C2.11135639,3.35907336 3.4142752,2.03088803 5.07824381,2.03088803 C5.96124601,2.03088803 6.53029188,2.33590734 7.0522443,2.76061776 C7.4721609,2.34749035 7.43684081,2.28957529 8.50036792,1.3011583 C7.59774344,0.49420849 6.39686044,0 5.08216826,0 C2.27618347,0 0,2.23938224 0,5 C0,7.7606178 2.27618347,10 5.08216826,10 C9.27740986,10 10.3016924,6.40540541 9.9602649,4.01158301 L5.07824381,4.01158301 Z M14.1747967,4.82520325 L14.1747967,3 L12.8739837,3 L12.8739837,4.82520325 L11,4.82520325 L11,6.12601626 L12.8739837,6.12601626 L12.8739837,8 L14.1747967,8 L14.1747967,6.12601626 L16,6.12601626 L16,4.82520325 L14.1747967,4.82520325 Z" id="path-1"></path>
        </g>
    </g>
</svg>