<?xml version="1.0" encoding="UTF-8"?>
<svg width="16px" height="16px" viewBox="0 0 16 16" version="1.1" xmlns="http://www.w3.org/2000/svg" xmlns:xlink="http://www.w3.org/1999/xlink">
    <!-- Generator: Sketch 49.3 (51167) - http://www.bohemiancoding.com/sketch -->
    <title>Instagram@2x</title>
    <desc>Created with Sketch.</desc>
    <defs></defs>
    <g id="Page-1" stroke="none" stroke-width="1" fill="none" fill-rule="evenodd">
        <g id="Instagram" fill="#FFFFFF" fill-rule="nonzero">
            <path d="M15.5795981,2.75734158 C15.7774343,3.26429675 15.9134467,3.84544049 15.950541,4.69860896 C15.9938176,5.55177743 16,5.82380216 16,8 C16,10.1761978 15.9876352,10.4482226 15.950541,11.301391 C15.9134467,12.1483771 15.7774343,12.7357032 15.5795981,13.2426584 C15.3755796,13.7681607 15.1035549,14.2132921 14.6584235,14.6584235 C14.2132921,15.1035549 13.7681607,15.3755796 13.2426584,15.5795981 C12.7357032,15.7774343 12.1545595,15.9134467 11.301391,15.950541 C10.4482226,15.9938176 10.1761978,16 8,16 C5.82380216,16 5.55177743,15.9876352 4.69860896,15.950541 C3.85162287,15.9134467 3.26429675,15.7774343 2.75734158,15.5795981 C2.23183926,15.3755796 1.78670788,15.1035549 1.34157651,14.6584235 C0.896445131,14.2132921 0.624420402,13.7681607 0.420401855,13.2426584 C0.222565688,12.7357032 0.086553323,12.1545595 0.0494590417,11.301391 C0.00618238022,10.4482226 0,10.1761978 0,8 C0,5.82380216 0.0123647604,5.55177743 0.0494590417,4.69860896 C0.086553323,3.85162287 0.222565688,3.26429675 0.420401855,2.75734158 C0.624420402,2.23183926 0.896445131,1.78670788 1.34157651,1.34157651 C1.78670788,0.896445131 2.23183926,0.624420402 2.75734158,0.420401855 C3.26429675,0.222565688 3.84544049,0.086553323 4.69860896,0.0494590417 C5.55177743,0.00618238022 5.82380216,0 8,0 C10.1761978,0 10.4482226,0.0123647604 11.301391,0.0494590417 C12.1483771,0.086553323 12.7357032,0.222565688 13.2426584,0.420401855 C13.7681607,0.624420402 14.2132921,0.896445131 14.6584235,1.34157651 C15.1035549,1.78670788 15.3755796,2.23183926 15.5795981,2.75734158 Z M13.9548023,10.9548023 C13.9887006,10.1864407 14,9.94915254 14,8 C14,6.05084746 13.9887006,5.81920904 13.9548023,5.04519774 C13.920904,4.33333333 13.8022599,3.94915254 13.700565,3.68926554 C13.5649718,3.34463277 13.4067797,3.10169492 13.1525424,2.84745763 C12.8983051,2.59322034 12.6497175,2.42937853 12.3107345,2.29943503 C12.0564972,2.19774011 11.6666667,2.07909605 10.9548023,2.04519774 C10.1864407,2.00564972 9.94915254,2 8,2 C6.05084746,2 5.81920904,2.01129944 5.04519774,2.04519774 C4.33333333,2.07909605 3.94915254,2.19774011 3.68926554,2.29943503 C3.34463277,2.43502825 3.10169492,2.59322034 2.84745763,2.84745763 C2.59322034,3.10169492 2.42937853,3.35028249 2.29943503,3.68926554 C2.19774011,3.94350282 2.07909605,4.33333333 2.04519774,5.04519774 C2.00564972,5.81355932 2,6.05084746 2,8 C2,9.94915254 2.01129944,10.180791 2.04519774,10.9548023 C2.07909605,11.6666667 2.19774011,12.0508475 2.29943503,12.3107345 C2.43502825,12.6553672 2.59322034,12.8983051 2.84745763,13.1525424 C3.10169492,13.4067797 3.35028249,13.5706215 3.68926554,13.700565 C3.94350282,13.8022599 4.33333333,13.920904 5.04519774,13.9548023 C5.81355932,13.9943503 6.04519774,14 8,14 C9.95480226,14 10.180791,13.9887006 10.9548023,13.9548023 C11.6666667,13.920904 12.0508475,13.8022599 12.3107345,13.700565 C12.6553672,13.5649718 12.8983051,13.4067797 13.1525424,13.1525424 C13.4067797,12.8983051 13.5706215,12.6497175 13.700565,12.3107345 C13.8022599,12.0564972 13.920904,11.6666667 13.9548023,10.9548023 Z M12,5 C11.4477153,5 11,4.55228475 11,4 C11,3.44771525 11.4477153,3 12,3 C12.5522847,3 13,3.44771525 13,4 C13,4.55228475 12.5522847,5 12,5 Z M8,4 C10.2075188,4 12,5.7924812 12,8 C12,10.2075188 10.2075188,12 8,12 C5.7924812,12 4,10.2075188 4,8 C4,5.7924812 5.7924812,4 8,4 Z M8,10 C9.10185185,10 10,9.10185185 10,8 C10,6.89351852 9.10648148,6 8,6 C6.89351852,6 6,6.89814815 6,8 C6,9.10648148 6.89814815,10 8,10 Z" id="path-1"></path>
        </g>
    </g>
</svg>