<?xml version="1.0" encoding="utf-8"?>
<!-- Generator: Adobe Illustrator 22.0.0, SVG Export Plug-In . SVG Version: 6.00 Build 0)  -->
<svg version="1.1" id="Layer_1" xmlns="http://www.w3.org/2000/svg" xmlns:xlink="http://www.w3.org/1999/xlink" x="0px" y="0px"
	 viewBox="0 0 129.5 118.7" style="enable-background:new 0 0 129.5 118.7;" xml:space="preserve">
<style type="text/css">
	.st0{fill:#092AAF;}
	.st1{fill:#0D39EA;}
	.st2{fill:#214DFC;}
</style>
<path class="st0" d="M52.1,70.8L13.4,48.5c-12.3-7.1-16.6-23-9.5-35.3l0,0C11,0.8,26.9-3.4,39.2,3.7L77.9,26
	c12.3,7.1,16.6,23,9.5,35.3l0,0C80.3,73.7,64.4,77.9,52.1,70.8z"/>
<path class="st1" d="M39.1,92.6V47.9C39.1,33.7,50.8,22,65,22h0c14.2,0,25.9,11.6,25.9,25.9v44.7c0,14.2-11.6,25.9-25.9,25.9h0
	C50.8,118.5,39.1,106.8,39.1,92.6z"/>
<path class="st2" d="M77.9,70.8l38.7-22.4c12.3-7.1,16.6-23,9.5-35.3l0,0c-7.1-12.3-23-16.6-35.3-9.5L52.1,26
	c-12.3,7.1-16.6,23-9.5,35.3l0,0C49.7,73.7,65.6,77.9,77.9,70.8z"/>
</svg>
