<?xml version="1.0" encoding="UTF-8"?>
<svg width="16px" height="12px" viewBox="0 0 16 12" version="1.1" xmlns="http://www.w3.org/2000/svg" xmlns:xlink="http://www.w3.org/1999/xlink">
    <!-- Generator: Sketch 49.3 (51167) - http://www.bohemiancoding.com/sketch -->
    <title>Twitter@2x</title>
    <desc>Created with Sketch.</desc>
    <defs></defs>
    <g id="Page-1" stroke="none" stroke-width="1" fill="none" fill-rule="evenodd">
        <g id="Twitter" fill="#FFFFFF" fill-rule="nonzero">
            <path d="M16,1.42015385 C15.4113528,1.66153846 14.7791948,1.82446154 14.1145286,1.89692308 C14.792198,1.52215385 15.3128282,0.92861538 15.5583896,0.22153846 C14.9237309,0.56815385 14.2215554,0.82107692 13.4738685,0.95630769 C12.8747187,0.36784615 12.0215054,0 11.0767692,0 C9.26381595,0 7.79494874,1.356 7.79494874,3.02907692 C7.79494874,3.26630769 7.82345586,3.498 7.87946987,3.71953846 C5.15128782,3.59307692 2.73268317,2.38707692 1.11327832,0.55430769 C0.831207802,1.002 0.669167292,1.52215385 0.669167292,2.07738462 C0.669167292,3.12876923 1.2488122,4.05553846 2.12903226,4.59923077 C1.59139785,4.58307692 1.08527132,4.44738462 0.642660665,4.22030769 C0.64216054,4.23276923 0.64216054,4.24615385 0.64216054,4.25815385 C0.64216054,5.72630769 1.77344336,6.95076923 3.27531883,7.22907692 C3.00025006,7.29784615 2.71017754,7.33523077 2.41060265,7.33523077 C2.19854964,7.33523077 1.99349837,7.31630769 1.79344836,7.28123077 C2.21055264,8.484 3.42335584,9.36 4.8592148,9.3849231 C3.73643411,10.1972308 2.32108027,10.6823077 0.783195799,10.6823077 C0.518129532,10.6823077 0.256564141,10.668 0,10.6398462 C1.45236309,11.4983077 3.17779445,12 5.03175794,12 C11.0692673,12 14.3715929,7.38415385 14.3715929,3.38076923 C14.3715929,3.24969231 14.3675919,3.11861538 14.3615904,2.98846154 C15.0032508,2.56153846 15.5593898,2.02846154 16,1.42015385 Z" id="path-1"></path>
        </g>
    </g>
</svg>